<?xml version="1.0" encoding="UTF-8"?><svg xmlns="http://www.w3.org/2000/svg" xmlns:xlink="http://www.w3.org/1999/xlink" height="448.0" preserveAspectRatio="xMidYMid meet" version="1.0" viewBox="24.0 32.0 464.0 448.0" width="464.0" zoomAndPan="magnify"><defs><linearGradient gradientUnits="userSpaceOnUse" id="a" x1="64" x2="64" xlink:actuate="onLoad" xlink:show="other" xlink:type="simple" xmlns:xlink="http://www.w3.org/1999/xlink" y1="34.892" y2="483.032"><stop offset="0" stop-color="#fc5c7d"/><stop offset=".129" stop-color="#f35e85"/><stop offset=".343" stop-color="#d9659b"/><stop offset=".616" stop-color="#b070bf"/><stop offset=".934" stop-color="#777ff0"/><stop offset="1" stop-color="#6a82fb"/></linearGradient><linearGradient id="b" x1="96" x2="96" xlink:actuate="onLoad" xlink:href="#a" xlink:show="other" xlink:type="simple" xmlns:xlink="http://www.w3.org/1999/xlink" y1="34.892" y2="483.032"/><linearGradient id="c" x1="128" x2="128" xlink:actuate="onLoad" xlink:href="#a" xlink:show="other" xlink:type="simple" xmlns:xlink="http://www.w3.org/1999/xlink" y1="34.892" y2="483.032"/><linearGradient id="d" x1="256" x2="256" xlink:actuate="onLoad" xlink:href="#a" xlink:show="other" xlink:type="simple" xmlns:xlink="http://www.w3.org/1999/xlink" y1="34.892" y2="482.892"/><linearGradient id="e" x1="256" x2="256" xlink:actuate="onLoad" xlink:href="#a" xlink:show="other" xlink:type="simple" xmlns:xlink="http://www.w3.org/1999/xlink" y1="34.892" y2="483.032"/><linearGradient id="f" x1="72" x2="72" xlink:actuate="onLoad" xlink:href="#a" xlink:show="other" xlink:type="simple" xmlns:xlink="http://www.w3.org/1999/xlink" y1="34.892" y2="483.032"/><linearGradient id="g" x1="156" x2="156" xlink:actuate="onLoad" xlink:href="#a" xlink:show="other" xlink:type="simple" xmlns:xlink="http://www.w3.org/1999/xlink" y1="34.892" y2="483.032"/><linearGradient id="h" x1="200" x2="200" xlink:actuate="onLoad" xlink:href="#a" xlink:show="other" xlink:type="simple" xmlns:xlink="http://www.w3.org/1999/xlink" y1="34.892" y2="483.032"/><linearGradient id="i" x1="172" x2="172" xlink:actuate="onLoad" xlink:href="#a" xlink:show="other" xlink:type="simple" xmlns:xlink="http://www.w3.org/1999/xlink" y1="34.892" y2="483.032"/><linearGradient id="j" x1="212" x2="212" xlink:actuate="onLoad" xlink:href="#a" xlink:show="other" xlink:type="simple" xmlns:xlink="http://www.w3.org/1999/xlink" y1="34.892" y2="483.032"/><linearGradient id="k" x1="78.828" x2="78.828" xlink:actuate="onLoad" xlink:href="#a" xlink:show="other" xlink:type="simple" xmlns:xlink="http://www.w3.org/1999/xlink" y1="34.892" y2="483.032"/><linearGradient id="l" x1="161.171" x2="161.171" xlink:actuate="onLoad" xlink:href="#a" xlink:show="other" xlink:type="simple" xmlns:xlink="http://www.w3.org/1999/xlink" y1="34.892" y2="483.032"/><linearGradient gradientTransform="rotate(71.562 120 159.999)" id="m" x1="120" x2="120" xlink:actuate="onLoad" xlink:href="#a" xlink:show="other" xlink:type="simple" xmlns:xlink="http://www.w3.org/1999/xlink" y1="34.892" y2="483.032"/><linearGradient id="n" x1="344" x2="344" xlink:actuate="onLoad" xlink:href="#a" xlink:show="other" xlink:type="simple" xmlns:xlink="http://www.w3.org/1999/xlink" y1="34.892" y2="483.032"/><linearGradient id="o" x1="352" x2="352" xlink:actuate="onLoad" xlink:href="#a" xlink:show="other" xlink:type="simple" xmlns:xlink="http://www.w3.org/1999/xlink" y1="34.892" y2="483.032"/><linearGradient id="p" x1="384" x2="384" xlink:actuate="onLoad" xlink:href="#a" xlink:show="other" xlink:type="simple" xmlns:xlink="http://www.w3.org/1999/xlink" y1="34.892" y2="483.032"/><linearGradient id="q" x1="240" x2="240" xlink:actuate="onLoad" xlink:href="#a" xlink:show="other" xlink:type="simple" xmlns:xlink="http://www.w3.org/1999/xlink" y1="34.892" y2="483.032"/></defs><path d="M56 64H72V80H56z" fill="url(#a)"/><path d="M88 64H104V80H88z" fill="url(#b)"/><path d="M120 64H136V80H120z" fill="url(#c)"/><path d="M456,32H56A32.036,32.036,0,0,0,24,64V384a32.036,32.036,0,0,0,32,32H197.058l-4.364,48H168v16H344V464H319.306l-4.364-48H456a32.036,32.036,0,0,0,32-32V64A32.036,32.036,0,0,0,456,32ZM56,48H456a16.019,16.019,0,0,1,16,16V96H40V64A16.019,16.019,0,0,1,56,48Zm416,64V336H40V112ZM303.24,464H208.76l4.364-48h85.752ZM456,400H56a16.019,16.019,0,0,1-16-16V352H472v32A16.019,16.019,0,0,1,456,400Z" fill="url(#d)"/><path d="M248 368H264V384H248z" fill="url(#e)"/><path d="M64 200H80V216H64z" fill="url(#f)"/><path d="M96 200H216V216H96z" fill="url(#g)"/><path d="M64 232H80V248H64z" fill="url(#f)"/><path d="M96 232H304V248H96z" fill="url(#h)"/><path d="M64 264H80V280H64z" fill="url(#f)"/><path d="M96 264H248V280H96z" fill="url(#i)"/><path d="M64 296H80V312H64z" fill="url(#f)"/><path d="M96 296H328V312H96z" fill="url(#j)"/><path d="M66.343,165.657l16,16,11.314-11.314L83.313,160l10.344-10.343L82.343,138.343l-16,16A8,8,0,0,0,66.343,165.657Z" fill="url(#k)"/><path d="M146.343,170.343l11.314,11.314,16-16a8,8,0,0,0,0-11.314l-16-16-11.314,11.314L156.687,160Z" fill="url(#l)"/><path d="M94.702 152H145.298V168H94.702z" fill="url(#m)" transform="rotate(-71.562 120 160)"/><path d="M320 232H368V248H320z" fill="url(#n)"/><path d="M344 296H360V312H344z" fill="url(#o)"/><path d="M376 296H392V312H376z" fill="url(#p)"/><path d="M232 200H248V216H232z" fill="url(#q)"/></svg>